<svg width="48" height="48" viewBox="0 0 48 48" fill="none" xmlns="http://www.w3.org/2000/svg">
<path d="M35.24 21.4992C34.38 21.4992 33.7 20.7992 33.7 19.9592C33.7 19.2192 32.96 17.6792 31.72 16.3392C30.5 15.0392 29.16 14.2792 28.04 14.2792C27.18 14.2792 26.5 13.5792 26.5 12.7392C26.5 11.8992 27.2 11.1992 28.04 11.1992C30.04 11.1992 32.14 12.2792 33.98 14.2192C35.7 16.0392 36.8 18.2992 36.8 19.9392C36.8 20.7992 36.1 21.4992 35.24 21.4992Z" fill="#F58E83"/>
<path d="M42.46 21.5C41.6 21.5 40.92 20.8 40.92 19.96C40.92 12.86 35.14 7.1 28.06 7.1C27.2 7.1 26.52 6.4 26.52 5.56C26.52 4.72 27.2 4 28.04 4C36.84 4 44 11.16 44 19.96C44 20.8 43.3 21.5 42.46 21.5Z" fill="#F58E83"/>
<path d="M22.1 29.9L18.4 33.6C17.62 34.38 16.38 34.38 15.58 33.62C15.36 33.4 15.14 33.2 14.92 32.98C12.86 30.9 11 28.72 9.34 26.44C7.7 24.16 6.38 21.88 5.42 19.62C4.48 17.34 4 15.16 4 13.08C4 11.72 4.24 10.42 4.72 9.22C5.2 8 5.96 6.88 7.02 5.88C8.3 4.62 9.7 4 11.18 4C11.74 4 12.3 4.12 12.8 4.36C13.32 4.6 13.78 4.96 14.14 5.48L18.78 12.02C19.14 12.52 19.4 12.98 19.58 13.42C19.76 13.84 19.86 14.26 19.86 14.64C19.86 15.12 19.72 15.6 19.44 16.06C19.18 16.52 18.8 17 18.32 17.48L16.8 19.06C16.58 19.28 16.48 19.54 16.48 19.86C16.48 20.02 16.5 20.16 16.54 20.32C16.6 20.48 16.66 20.6 16.7 20.72C17.06 21.38 17.68 22.24 18.56 23.28C19.46 24.32 20.42 25.38 21.46 26.44C21.66 26.64 21.88 26.84 22.08 27.04C22.88 27.82 22.9 29.1 22.1 29.9Z" fill="#F58E83"/>
<path d="M43.9399 36.6581C43.9399 37.2181 43.84 37.7981 43.6399 38.3581C43.58 38.5181 43.5199 38.6781 43.4399 38.8381C43.0999 39.5581 42.66 40.2381 42.08 40.8781C41.1 41.9581 40.0199 42.7381 38.7999 43.2381C38.7799 43.2381 38.76 43.2581 38.74 43.2581C37.56 43.7381 36.28 43.9981 34.9 43.9981C32.86 43.9981 30.6799 43.5181 28.3799 42.5381C26.0799 41.5581 23.78 40.2381 21.5 38.5781C20.72 37.9981 19.94 37.4181 19.2 36.7981L25.74 30.2581C26.3 30.6781 26.7999 30.9981 27.2199 31.2181C27.32 31.2581 27.4399 31.3181 27.58 31.3781C27.74 31.4381 27.9 31.4581 28.08 31.4581C28.42 31.4581 28.6799 31.3381 28.9 31.1181L30.42 29.6181C30.92 29.1181 31.4 28.7381 31.86 28.4981C32.32 28.2181 32.7799 28.0781 33.2799 28.0781C33.6599 28.0781 34.06 28.1581 34.5 28.3381C34.9399 28.5181 35.4 28.7781 35.9 29.1181L42.52 33.8181C43.04 34.1781 43.4 34.5981 43.6199 35.0981C43.82 35.5981 43.9399 36.0981 43.9399 36.6581Z" fill="#F58E83"/>
</svg>
