<svg width="46" height="46" viewBox="0 0 46 46" fill="none" xmlns="http://www.w3.org/2000/svg">
<rect width="46" height="46" rx="4" fill="#F58E83"/>
<path d="M17 28.9745C17.1287 30.2829 17.4196 31.1636 18.0769 31.8209C19.256 33 21.1536 33 24.9489 33C28.7442 33 30.6419 33 31.8209 31.8209C33 30.6419 33 28.7442 33 24.9489C33 21.1536 33 19.256 31.8209 18.0769C31.1636 17.4196 30.2829 17.1287 28.9745 17" stroke="white" stroke-width="1.5"/>
<path d="M13 21C13 17.2288 13 15.3432 14.1716 14.1716C15.3432 13 17.2288 13 21 13C24.7712 13 26.6569 13 27.8284 14.1716C29 15.3432 29 17.2288 29 21C29 24.7712 29 26.6569 27.8284 27.8284C26.6569 29 24.7712 29 21 29C17.2288 29 15.3432 29 14.1716 27.8284C13 26.6569 13 24.7712 13 21Z" stroke="white" stroke-width="1.5"/>
<path d="M13 22.1185C13.619 22.0398 14.2448 22.001 14.8717 22.0023C17.5237 21.9533 20.1106 22.6763 22.1711 24.0424C24.082 25.3094 25.4247 27.053 26 29" stroke="white" stroke-width="1.5" stroke-linejoin="round"/>
<path d="M24.125 18H24M24.25 18C24.25 18.1381 24.1381 18.25 24 18.25C23.8619 18.25 23.75 18.1381 23.75 18C23.75 17.8619 23.8619 17.75 24 17.75C24.1381 17.75 24.25 17.8619 24.25 18Z" stroke="white" stroke-width="1.5" stroke-linecap="round"/>
</svg>
