<svg width="46" height="46" viewBox="0 0 46 46" fill="none" xmlns="http://www.w3.org/2000/svg">
<rect width="46" height="46" rx="4" fill="#F58E83"/>
<path d="M27.0001 27.5L31 31.5" stroke="white" stroke-width="1.5" stroke-linecap="round" stroke-linejoin="round"/>
<path d="M29 22.5C29 26.366 25.866 29.5 22 29.5C18.134 29.5 15 26.366 15 22.5C15 18.634 18.134 15.5 22 15.5" stroke="white" stroke-width="1.5" stroke-linecap="round" stroke-linejoin="round"/>
<path d="M26.5 14.5L26.7579 15.197C27.0961 16.111 27.2652 16.568 27.5986 16.9014C27.932 17.2348 28.389 17.4039 29.303 17.7421L30 18L29.303 18.2579C28.389 18.5961 27.932 18.7652 27.5986 19.0986C27.2652 19.432 27.0961 19.889 26.7579 20.803L26.5 21.5L26.2421 20.803C25.9039 19.889 25.7348 19.432 25.4014 19.0986C25.068 18.7652 24.611 18.5961 23.697 18.2579L23 18L23.697 17.7421C24.611 17.4039 25.068 17.2348 25.4014 16.9014C25.7348 16.568 25.9039 16.111 26.2421 15.197L26.5 14.5Z" stroke="white" stroke-width="1.5" stroke-linecap="round" stroke-linejoin="round"/>
</svg>
