<svg width="46" height="46" viewBox="0 0 46 46" fill="none" xmlns="http://www.w3.org/2000/svg">
<rect width="46" height="46" rx="4" fill="#F58E83"/>
<path d="M23.5 19L21 23H25L22.5 27" stroke="white" stroke-width="1.5" stroke-linecap="round" stroke-linejoin="round"/>
<path d="M32.011 25.1391C32.5329 24.9955 32.7939 24.9237 32.8969 24.7864C33 24.6491 33 24.4282 33 23.9865V22.0136C33 21.5719 33 21.351 32.8969 21.2137C32.7938 21.0764 32.5329 21.0046 32.011 20.861C30.0606 20.3243 28.8399 18.2438 29.3433 16.2668C29.4817 15.7231 29.5509 15.4513 29.4848 15.2918C29.4187 15.1324 29.2291 15.0225 28.8497 14.8027L27.125 13.8036C26.7528 13.588 26.5667 13.4802 26.3997 13.5031C26.2326 13.5261 26.0442 13.7179 25.6672 14.1016C24.208 15.5869 21.7936 15.5868 20.3343 14.1015C19.9574 13.7178 19.769 13.526 19.6019 13.503C19.4349 13.4801 19.2488 13.5879 18.8765 13.8035L17.1518 14.8027C16.7725 15.0224 16.5829 15.1323 16.5168 15.2917C16.4507 15.4511 16.5199 15.723 16.6582 16.2667C17.1614 18.2438 15.9397 20.3243 13.989 20.861C13.4671 21.0046 13.2062 21.0764 13.1031 21.2137C13 21.351 13 21.5718 13 22.0136V23.9865C13 24.4282 13 24.6491 13.1031 24.7864C13.2062 24.9237 13.4671 24.9955 13.989 25.1391C15.9394 25.6758 17.1601 27.7563 16.6567 29.7333C16.5183 30.277 16.4491 30.5488 16.5152 30.7083C16.5813 30.8677 16.7709 30.9776 17.1502 31.1973L18.8749 32.1965C19.2472 32.4121 19.4333 32.5199 19.6004 32.497C19.7675 32.474 19.9559 32.2821 20.3327 31.8985C21.7927 30.4119 24.2088 30.4119 25.6689 31.8984C26.0457 32.2821 26.2341 32.4739 26.4012 32.4969C26.5682 32.5198 26.7544 32.412 27.1266 32.1964L28.8513 31.1972C29.2307 30.9775 29.4204 30.8676 29.4864 30.7081C29.5525 30.5487 29.4833 30.2768 29.3448 29.7332C28.8412 27.7563 30.0609 25.6758 32.011 25.1391Z" stroke="white" stroke-width="1.5" stroke-linecap="round"/>
</svg>
