<svg width="48" height="48" viewBox="0 0 48 48" fill="none" xmlns="http://www.w3.org/2000/svg">
<path d="M35.06 15.54C34.92 15.52 34.78 15.52 34.64 15.54C31.54 15.44 29.08 12.9 29.08 9.78C29.08 6.6 31.66 4 34.86 4C38.04 4 40.64 6.58 40.64 9.78C40.62 12.9 38.16 15.44 35.06 15.54Z" fill="#F58E83"/>
<path d="M41.58 29.4008C39.34 30.9008 36.1999 31.4608 33.2999 31.0808C34.0599 29.4408 34.4599 27.6208 34.4799 25.7008C34.4799 23.7008 34.04 21.8008 33.2 20.1408C36.16 19.7408 39.3 20.3008 41.56 21.8008C44.72 23.8808 44.72 27.3008 41.58 29.4008Z" fill="#F58E83"/>
<path d="M12.8799 15.54C13.0199 15.52 13.1599 15.52 13.2999 15.54C16.3999 15.44 18.8599 12.9 18.8599 9.78C18.8599 6.58 16.2799 4 13.0799 4C9.89995 4 7.31995 6.58 7.31995 9.78C7.31995 12.9 9.77995 15.44 12.8799 15.54Z" fill="#F58E83"/>
<path d="M13.1 25.7012C13.1 27.6412 13.52 29.4812 14.28 31.1412C11.46 31.4412 8.51999 30.8412 6.35999 29.4212C3.19999 27.3212 3.19999 23.9012 6.35999 21.8012C8.49999 20.3612 11.52 19.7812 14.36 20.1012C13.54 21.7812 13.1 23.6812 13.1 25.7012Z" fill="#F58E83"/>
<path d="M24.24 31.74C24.08 31.72 23.9 31.72 23.72 31.74C20.04 31.62 17.1 28.6 17.1 24.88C17.12 21.08 20.18 18 24 18C27.8 18 30.88 21.08 30.88 24.88C30.86 28.6 27.94 31.62 24.24 31.74Z" fill="#F58E83"/>
<path d="M17.74 35.8812C14.72 37.9012 14.72 41.2213 17.74 43.2213C21.18 45.5213 26.82 45.5213 30.26 43.2213C33.28 41.2013 33.28 37.8812 30.26 35.8812C26.84 33.5812 21.2 33.5812 17.74 35.8812Z" fill="#F58E83"/>
</svg>
