<svg width="48" height="48" viewBox="0 0 48 48" fill="none" xmlns="http://www.w3.org/2000/svg">
<path d="M30.78 10.4186L33.6 16.0586C33.98 16.8386 35 17.5786 35.86 17.7386L40.96 18.5786C44.22 19.1186 44.98 21.4786 42.64 23.8386L38.66 27.8186C38 28.4786 37.62 29.7786 37.84 30.7186L38.98 35.6386C39.88 39.5186 37.8 41.0386 34.38 38.9986L29.6 36.1586C28.74 35.6386 27.3 35.6386 26.44 36.1586L21.66 38.9986C18.24 41.0186 16.16 39.5186 17.06 35.6386L18.2 30.7186C18.38 29.7586 18 28.4586 17.34 27.7986L13.36 23.8186C11.02 21.4786 11.78 19.1186 15.04 18.5586L20.14 17.7186C21 17.5786 22.02 16.8186 22.4 16.0386L25.22 10.3986C26.76 7.3586 29.24 7.3586 30.78 10.4186Z" fill="#F58E83"/>
<path d="M16 11.5H4C3.18 11.5 2.5 10.82 2.5 10C2.5 9.18 3.18 8.5 4 8.5H16C16.82 8.5 17.5 9.18 17.5 10C17.5 10.82 16.82 11.5 16 11.5Z" fill="#F58E83"/>
<path d="M10 39.5H4C3.18 39.5 2.5 38.82 2.5 38C2.5 37.18 3.18 36.5 4 36.5H10C10.82 36.5 11.5 37.18 11.5 38C11.5 38.82 10.82 39.5 10 39.5Z" fill="#F58E83"/>
<path d="M6 25.5H4C3.18 25.5 2.5 24.82 2.5 24C2.5 23.18 3.18 22.5 4 22.5H6C6.82 22.5 7.5 23.18 7.5 24C7.5 24.82 6.82 25.5 6 25.5Z" fill="#F58E83"/>
</svg>
